<svg xmlns="http://www.w3.org/2000/svg" viewBox="0 0 500 500" fill="none">
  <defs>
    <linearGradient id="bgGrad" x1="0" y1="0" x2="1" y2="1">
      <stop offset="0%" stop-color="#ECFDF5"/>
      <stop offset="100%" stop-color="#D1FAE5"/>
    </linearGradient>
    <linearGradient id="screenGrad" x1="0" y1="0" x2="0" y2="1">
      <stop offset="0%" stop-color="#059669"/>
      <stop offset="100%" stop-color="#047857"/>
    </linearGradient>
    <linearGradient id="deskGrad" x1="0" y1="0" x2="0" y2="1">
      <stop offset="0%" stop-color="#92400E"/>
      <stop offset="100%" stop-color="#78350F"/>
    </linearGradient>
    <linearGradient id="shirtGrad" x1="0" y1="0" x2="0" y2="1">
      <stop offset="0%" stop-color="#10B981"/>
      <stop offset="100%" stop-color="#059669"/>
    </linearGradient>
    <linearGradient id="hairGrad" x1="0" y1="0" x2="0" y2="1">
      <stop offset="0%" stop-color="#1C1917"/>
      <stop offset="100%" stop-color="#292524"/>
    </linearGradient>
    <filter id="shadow" x="-20%" y="-20%" width="140%" height="140%">
      <feDropShadow dx="0" dy="4" stdDeviation="8" flood-color="#059669" flood-opacity="0.15"/>
    </filter>
    <filter id="softShadow" x="-10%" y="-10%" width="120%" height="120%">
      <feDropShadow dx="0" dy="2" stdDeviation="4" flood-color="#000" flood-opacity="0.08"/>
    </filter>
  </defs>
  <circle cx="250" cy="250" r="220" fill="url(#bgGrad)" opacity="0.6"/>
  <circle cx="250" cy="250" r="180" fill="white" opacity="0.5"/>
  <rect x="80" y="340" width="340" height="12" rx="4" fill="url(#deskGrad)" filter="url(#softShadow)"/>
  <rect x="100" y="352" width="12" height="60" rx="3" fill="#78350F"/>
  <rect x="388" y="352" width="12" height="60" rx="3" fill="#78350F"/>
  <rect x="225" y="310" width="50" height="30" rx="3" fill="#475569"/>
  <rect x="235" y="330" width="30" height="10" rx="2" fill="#334155"/>
  <rect x="155" y="170" width="190" height="140" rx="12" fill="#1E293B" filter="url(#shadow)"/>
  <rect x="165" y="180" width="170" height="115" rx="6" fill="url(#screenGrad)"/>
  <rect x="178" y="195" width="80" height="18" rx="9" fill="white" opacity="0.9"/>
  <rect x="178" y="218" width="60" height="18" rx="9" fill="white" opacity="0.7"/>
  <rect x="262" y="241" width="60" height="18" rx="9" fill="white" opacity="0.9"/>
  <rect x="262" y="264" width="45" height="18" rx="9" fill="white" opacity="0.7"/>
  <circle cx="178" cy="285" r="3" fill="white" opacity="0.5"/>
  <circle cx="192" cy="285" r="3" fill="white" opacity="0.5"/>
  <circle cx="206" cy="285" r="3" fill="white" opacity="0.5"/>
  <ellipse cx="310" cy="310" rx="35" ry="45" fill="url(#shirtGrad)" filter="url(#softShadow)"/>
  <rect x="300" y="248" width="20" height="20" rx="5" fill="#FCD34D"/>
  <ellipse cx="310" cy="228" rx="28" ry="30" fill="#FCD34D"/>
  <ellipse cx="310" cy="210" rx="30" ry="22" fill="url(#hairGrad)"/>
  <ellipse cx="295" cy="218" rx="10" ry="18" fill="url(#hairGrad)"/>
  <ellipse cx="325" cy="218" rx="10" ry="18" fill="url(#hairGrad)"/>
  <ellipse cx="300" cy="225" rx="4" ry="4.5" fill="#292524"/>
  <ellipse cx="320" cy="225" rx="4" ry="4.5" fill="#292524"/>
  <circle cx="301" cy="223.5" r="1.5" fill="white" opacity="0.8"/>
  <circle cx="321" cy="223.5" r="1.5" fill="white" opacity="0.8"/>
  <path d="M302 236 Q310 244 318 236" stroke="#292524" stroke-width="2" fill="none" stroke-linecap="round"/>
  <path d="M295 218 Q300 215 305 218" stroke="#292524" stroke-width="1.5" fill="none" stroke-linecap="round"/>
  <path d="M315 218 Q320 215 325 218" stroke="#292524" stroke-width="1.5" fill="none" stroke-linecap="round"/>
  <path d="M280 280 Q260 290 255 310 Q250 325 260 330" stroke="#FCD34D" stroke-width="14" stroke-linecap="round" fill="none"/>
  <circle cx="260" cy="330" r="8" fill="#FCD34D"/>
  <path d="M340 280 Q360 290 365 310 Q368 325 360 330" stroke="#FCD34D" stroke-width="14" stroke-linecap="round" fill="none"/>
  <circle cx="360" cy="330" r="8" fill="#FCD34D"/>
  <rect x="170" y="325" width="100" height="20" rx="4" fill="#475569" filter="url(#softShadow)"/>
  <rect x="176" y="328" width="8" height="6" rx="1" fill="#64748B"/>
  <rect x="186" y="328" width="8" height="6" rx="1" fill="#64748B"/>
  <rect x="196" y="328" width="8" height="6" rx="1" fill="#64748B"/>
  <rect x="206" y="328" width="8" height="6" rx="1" fill="#64748B"/>
  <rect x="216" y="328" width="8" height="6" rx="1" fill="#64748B"/>
  <rect x="226" y="328" width="8" height="6" rx="1" fill="#64748B"/>
  <rect x="236" y="328" width="8" height="6" rx="1" fill="#64748B"/>
  <rect x="246" y="328" width="8" height="6" rx="1" fill="#64748B"/>
  <rect x="256" y="328" width="8" height="6" rx="1" fill="#64748B"/>
  <rect x="176" y="336" width="8" height="6" rx="1" fill="#64748B"/>
  <rect x="186" y="336" width="8" height="6" rx="1" fill="#64748B"/>
  <rect x="196" y="336" width="8" height="6" rx="1" fill="#64748B"/>
  <rect x="206" y="336" width="8" height="6" rx="1" fill="#64748B"/>
  <rect x="216" y="336" width="8" height="6" rx="1" fill="#64748B"/>
  <rect x="226" y="336" width="8" height="6" rx="1" fill="#64748B"/>
  <rect x="236" y="336" width="8" height="6" rx="1" fill="#64748B"/>
  <rect x="246" y="336" width="8" height="6" rx="1" fill="#64748B"/>
  <rect x="256" y="336" width="8" height="6" rx="1" fill="#64748B"/>
  <ellipse cx="370" cy="332" rx="8" ry="12" fill="#475569" filter="url(#softShadow)"/>
  <line x1="370" y1="324" x2="370" y2="330" stroke="#64748B" stroke-width="1.5"/>
  <g opacity="0.3">
    <rect x="380" y="100" width="24" height="20" rx="4" fill="#10B981"/>
    <polygon points="380,116 386,110 380,110" fill="#10B981"/>
  </g>
  <g opacity="0.25">
    <rect x="100" y="90" width="22" height="22" rx="4" fill="#10B981"/>
    <rect x="106" y="100" width="4" height="8" rx="1" fill="white" opacity="0.7"/>
    <rect x="113" y="96" width="4" height="12" rx="1" fill="white" opacity="0.7"/>
    <rect x="120" y="104" width="4" height="4" rx="1" fill="white" opacity="0.7"/>
  </g>
  <circle cx="420" cy="180" r="3" fill="#10B981" opacity="0.2"/>
  <circle cx="430" cy="200" r="2" fill="#10B981" opacity="0.15"/>
  <circle cx="80" cy="160" r="3" fill="#10B981" opacity="0.2"/>
  <circle cx="70" cy="180" r="2" fill="#10B981" opacity="0.15"/>
  <g transform="translate(420, 280)">
    <circle cx="0" cy="0" r="14" fill="#10B981" opacity="0.9"/>
    <path d="M-5 0 L-1 4 L5 -3" stroke="white" stroke-width="2.5" stroke-linecap="round" stroke-linejoin="round" fill="none"/>
  </g>
</svg>
